<svg xmlns="http://www.w3.org/2000/svg" viewBox="0 0 320 80" fill="none" id="siteLogoSvg">
  <defs>
    <linearGradient id="logoGrad" x1="0%" y1="0%" x2="100%" y2="100%">
      <stop offset="0%" stop-color="#6366f1"/>
      <stop offset="100%" stop-color="#ec4899"/>
    </linearGradient>
  </defs>
  <g id="logoMark" transform="translate(6,10)">
    <rect x="0" y="0" width="60" height="60" rx="16" fill="url(#logoGrad)"/>
    <path d="M20 34 a10 10 0 0 1 10-10 h6 a2 2 0 0 1 0 4 h-6 a6 6 0 0 0 -6 6 a6 6 0 0 0 6 6 h6 a2 2 0 0 1 0 4 h-6 a10 10 0 0 1 -10-10 z" fill="#fff"/>
    <path d="M40 26 a10 10 0 0 1 -10 10 h-6 a2 2 0 0 1 0-4 h6 a6 6 0 0 0 6-6 a6 6 0 0 0 -6-6 h-6 a2 2 0 0 1 0-4 h6 a10 10 0 0 1 10 10 z" fill="#fff"/>
  </g>
  <text x="76" y="49" font-family="Arial, Helvetica, sans-serif" font-weight="800" font-size="32" fill="#111827">Short<tspan fill="#6366f1">Z</tspan>links</text>
</svg>
